<svg width="270" height="168" viewBox="0 0 270 168" fill="none" xmlns="http://www.w3.org/2000/svg">
<path d="M68.6807 2.16463L68.6817 0.164627H68.6807V2.16463ZM100.538 2.18039L100.537 4.18039H100.538V2.18039ZM104.427 4.8703L106.341 4.29104C106.328 4.24814 106.314 4.20568 106.298 4.16374L104.427 4.8703ZM126.608 78.1756L124.694 78.7548L124.695 78.7578L126.608 78.1756ZM131.191 2.04029L131.188 0.0402901L131.188 0.0402907L131.191 2.04029ZM161.67 2.00001L161.672 4.00001L161.673 4.00001L161.67 2.00001ZM161.672 165.878L161.67 167.878H161.67L161.672 165.878ZM130.186 165.846L130.183 167.846H130.184L130.186 165.846ZM126.318 163.205L124.41 163.805C124.423 163.848 124.439 163.892 124.456 163.935L126.318 163.205ZM103.334 90.0122L101.426 90.611L101.426 90.6114L103.334 90.0122ZM102.907 90.077H100.907V90.0772L102.907 90.077ZM102.912 161.801H104.912V161.801L102.912 161.801ZM98.7538 165.962V167.962H98.7553L98.7538 165.962ZM36.2682 2.1845L36.265 4.1845L36.2653 4.1845L36.2682 2.1845ZM6.3842 2.13722L6.38736 0.137219L6.38709 0.137219L6.3842 2.13722ZM189.716 6.55272H191.716C191.716 6.02153 191.504 5.51216 191.128 5.13696L189.716 6.55272ZM228.382 60.2739L226.382 60.2606V60.2609L228.382 60.2739ZM228.482 45.2394L230.482 45.2527V45.2525L228.482 45.2394ZM267.309 36.4955L265.309 36.5037V36.5041L267.309 36.4955ZM267.187 6.53345L269.187 6.52527V6.52474L267.187 6.53345ZM189.714 6.55096H187.714C187.714 7.08215 187.925 7.59152 188.301 7.96672L189.714 6.55096ZM62.5206 6.32383V161.803H66.5206V6.32383H62.5206ZM68.6807 0.164627C65.2797 0.164627 62.5206 2.92093 62.5206 6.32383H66.5206C66.5206 5.13147 67.4874 4.16463 68.6807 4.16463V0.164627ZM100.539 0.180388L68.6817 0.164627L68.6797 4.16463L100.537 4.18039L100.539 0.180388ZM106.298 4.16374C105.393 1.76854 103.101 0.180388 100.538 0.180388V4.18039C101.434 4.18039 102.238 4.73576 102.556 5.57686L106.298 4.16374ZM128.523 77.5963L106.341 4.29104L102.512 5.44955L124.694 78.7548L128.523 77.5963ZM125.037 78.1125C125.037 76.04 127.933 75.6596 128.522 77.5934L124.695 78.7578C125.431 81.1749 129.037 80.6894 129.037 78.1125H125.037ZM125.037 6.19949V78.1125H129.037V6.19949H125.037ZM131.188 0.0402907C127.791 0.0454776 125.037 2.80169 125.037 6.19949H129.037C129.037 5.00903 130.003 4.0421 131.194 4.04029L131.188 0.0402907ZM161.667 1.15633e-05L131.188 0.0402901L131.193 4.04029L161.672 4.00001L161.667 1.15633e-05ZM167.833 6.15921C167.833 2.75515 165.073 -0.00517678 161.667 1.21593e-05L161.673 4.00001C162.865 3.99819 163.833 4.96451 163.833 6.15921H167.833ZM167.833 161.719V6.15921H163.833V161.719H167.833ZM161.67 167.878C165.074 167.88 167.833 165.123 167.833 161.719H163.833C163.833 162.913 162.867 163.879 161.673 163.878L161.67 167.878ZM130.184 167.846L161.67 167.878L161.674 163.878L130.188 163.846L130.184 167.846ZM124.456 163.935C125.379 166.293 127.653 167.844 130.183 167.846L130.188 163.846C129.3 163.845 128.503 163.301 128.18 162.476L124.456 163.935ZM101.426 90.6114L124.41 163.805L128.226 162.606L105.242 89.413L101.426 90.6114ZM104.907 90.077C104.907 92.1225 102.034 92.5489 101.426 90.611L105.242 89.4134C104.484 86.9957 100.907 87.5307 100.907 90.077H104.907ZM104.912 161.801L104.907 90.0769L100.907 90.0772L100.912 161.801L104.912 161.801ZM98.7553 167.962C102.156 167.959 104.912 165.203 104.912 161.801H100.912C100.912 162.994 99.9459 163.961 98.7523 163.962L98.7553 167.962ZM68.679 167.962H98.7538V163.962H68.679V167.962ZM62.5206 161.803C62.5206 165.205 65.2791 167.962 68.679 167.962V163.962C67.488 163.962 66.5206 162.996 66.5206 161.803H62.5206ZM4 161.623V6.51532H0V161.623H4ZM6.37719 164.001C5.06419 164.001 4 162.937 4 161.623H0C0 165.146 2.85427 168.001 6.37719 168.001V164.001ZM36.2612 164.001H6.37719V168.001H36.2612V164.001ZM38.6384 161.623C38.6384 162.937 37.5742 164.001 36.2612 164.001V168.001C39.7841 168.001 42.6384 165.146 42.6384 161.623H38.6384ZM38.6384 6.56261V161.623H42.6384V6.56261H38.6384ZM36.2653 4.1845C37.5755 4.1864 38.6384 5.25029 38.6384 6.56261H42.6384C42.6384 3.04499 39.7898 0.189607 36.2711 0.184502L36.2653 4.1845ZM6.38103 4.13721L36.265 4.1845L36.2713 0.184503L6.38736 0.137219L6.38103 4.13721ZM4 6.51532C4 5.20081 5.06729 4.13531 6.3813 4.13721L6.38709 0.137219C2.86168 0.132116 0 2.98941 0 6.51532H4ZM191.716 161.58V6.55272H187.716V161.58H191.716ZM194.093 163.958C192.78 163.958 191.716 162.894 191.716 161.58H187.716C187.716 165.102 190.57 167.958 194.093 167.958V163.958ZM223.977 163.958H194.093V167.958H223.977V163.958ZM226.354 161.58C226.354 162.894 225.29 163.958 223.977 163.958V167.958C227.5 167.958 230.354 165.102 230.354 161.58H226.354ZM226.354 107.89V161.58H230.354V107.89H226.354ZM232.731 101.512C229.208 101.512 226.354 104.368 226.354 107.89H230.354C230.354 106.576 231.418 105.512 232.731 105.512V101.512ZM247.857 101.512H232.731V105.512H247.857V101.512ZM250.234 99.1339C250.234 100.448 249.17 101.512 247.857 101.512V105.512C251.38 105.512 254.234 102.657 254.234 99.1339H250.234ZM250.234 69.0598V99.1339H254.234V69.0598H250.234ZM247.857 66.6817C249.17 66.6817 250.234 67.7455 250.234 69.0598H254.234C254.234 65.5372 251.38 62.6817 247.857 62.6817V66.6817ZM232.759 66.6817H247.857V62.6817H232.759V66.6817ZM226.382 60.2609C226.359 63.8006 229.22 66.6817 232.759 66.6817V62.6817C231.441 62.6817 230.373 61.6086 230.382 60.2868L226.382 60.2609ZM226.482 45.2262L226.382 60.2606L230.382 60.2871L230.482 45.2527L226.482 45.2262ZM232.859 38.8911C229.354 38.8911 226.505 41.7204 226.482 45.2263L230.482 45.2525C230.49 43.9461 231.552 42.8911 232.859 42.8911V38.8911ZM262.932 38.8911H232.859V42.8911H262.932V38.8911ZM265.309 36.5041C265.315 37.8212 264.25 38.8911 262.932 38.8911V42.8911C266.465 42.8911 269.325 40.0207 269.309 36.4868L265.309 36.5041ZM265.187 6.54163L265.309 36.5037L269.309 36.4873L269.187 6.52527L265.187 6.54163ZM262.81 4.17286C264.118 4.17286 265.181 5.23058 265.187 6.54216L269.187 6.52474C269.171 3.0134 266.323 0.172856 262.81 0.172856V4.17286ZM194.091 4.17286H262.81V0.172856H194.091V4.17286ZM191.714 6.55096C191.714 5.23667 192.778 4.17286 194.091 4.17286V0.172856C190.568 0.172856 187.714 3.02832 187.714 6.55096H191.714ZM191.128 5.13696L191.127 5.13521L188.301 7.96672L188.303 7.96847L191.128 5.13696Z" fill="url(#paint0_linear_502_1140)"/>
<defs>
<linearGradient id="paint0_linear_502_1140" x1="267.309" y1="2" x2="120.61" y2="239.32" gradientUnits="userSpaceOnUse">
<stop stop-color="#2979FF"/>
<stop offset="1" stop-color="#F50057"/>
</linearGradient>
</defs>
</svg>
