<svg width="41" height="26" viewBox="0 0 41 26" fill="none" xmlns="http://www.w3.org/2000/svg">
<path d="M10.7582 1.02409L10.7586 0.274092H10.7582V1.02409ZM15.4203 1.0264L15.4199 1.7764H15.4203V1.0264ZM15.9894 1.42005L16.7072 1.20283C16.7023 1.18674 16.6969 1.17081 16.691 1.15509L15.9894 1.42005ZM19.2355 12.1477L18.5176 12.3649L18.518 12.366L19.2355 12.1477ZM19.906 1.0059L19.9051 0.255897L19.9049 0.255897L19.906 1.0059ZM24.3665 1L24.3675 1.75L24.3676 1.75L24.3665 1ZM24.3667 24.9823L24.366 25.7323H24.3661L24.3667 24.9823ZM19.759 24.9777L19.7582 25.7277H19.7582L19.759 24.9777ZM19.193 24.5912L18.4774 24.8159C18.4826 24.8323 18.4883 24.8486 18.4946 24.8646L19.193 24.5912ZM15.8295 13.8799L15.1139 14.1045L15.1139 14.1046L15.8295 13.8799ZM15.7669 13.8894H15.0169V13.8895L15.7669 13.8894ZM15.7677 24.3856H16.5177V24.3856L15.7677 24.3856ZM15.1592 24.9946V25.7446H15.1597L15.1592 24.9946ZM6.01489 1.02645L6.0137 1.77645L6.0138 1.77645L6.01489 1.02645ZM1.64159 1.01953L1.64278 0.269534L1.64268 0.269533L1.64159 1.01953ZM28.4707 1.66635H29.2207C29.2207 1.46777 29.142 1.2773 29.0017 1.1367L28.4707 1.66635ZM34.1292 9.52803L33.3793 9.52305V9.52317L34.1292 9.52803ZM34.1438 7.32786L34.8938 7.33283V7.33277L34.1438 7.32786ZM39.826 6.04824L39.076 6.05131V6.05149L39.826 6.04824ZM39.808 1.66353L40.558 1.66046V1.66026L39.808 1.66353ZM28.4705 1.66609H27.7205C27.7205 1.86467 27.7992 2.05515 27.9394 2.19574L28.4705 1.66609ZM9.39941 1.63276V24.3859H10.8994V1.63276H9.39941ZM10.7582 0.274092C10.0081 0.274092 9.39941 0.882041 9.39941 1.63276H10.8994C10.8994 1.711 10.836 1.77409 10.7582 1.77409V0.274092ZM15.4206 0.276398L10.7586 0.274092L10.7578 1.77409L15.4199 1.7764L15.4206 0.276398ZM16.691 1.15509C16.4915 0.626888 15.9859 0.276398 15.4203 0.276398V1.7764C15.3609 1.7764 15.3083 1.7396 15.2877 1.68501L16.691 1.15509ZM19.9534 11.9305L16.7072 1.20283L15.2715 1.63727L18.5176 12.3649L19.9534 11.9305ZM18.5483 12.1385C18.5483 11.3036 19.7156 11.149 19.953 11.9294L18.518 12.366C18.777 13.2172 20.0483 13.0472 20.0483 12.1385H18.5483ZM18.5483 1.61456V12.1385H20.0483V1.61456H18.5483ZM19.9049 0.255897C19.1556 0.257041 18.5483 0.86496 18.5483 1.61456H20.0483C20.0483 1.69271 19.9852 1.75578 19.9072 1.75589L19.9049 0.255897ZM24.3655 0.250001L19.9051 0.255897L19.907 1.7559L24.3675 1.75L24.3655 0.250001ZM25.7258 1.60867C25.7258 0.857918 25.1168 0.248859 24.3653 0.250001L24.3676 1.75C24.289 1.75012 24.2258 1.68643 24.2258 1.60867H25.7258ZM25.7258 24.3736V1.60867H24.2258V24.3736H25.7258ZM24.3661 25.7323C25.1171 25.7328 25.7258 25.1245 25.7258 24.3736H24.2258C24.2258 24.2957 24.2892 24.2322 24.3673 24.2323L24.3661 25.7323ZM19.7582 25.7277L24.366 25.7323L24.3675 24.2323L19.7597 24.2277L19.7582 25.7277ZM18.4946 24.8646C18.6984 25.3852 19.2002 25.7271 19.7582 25.7277L19.7597 24.2277C19.8176 24.2277 19.87 24.2631 19.8913 24.3177L18.4946 24.8646ZM15.1139 14.1046L18.4774 24.8159L19.9085 24.3665L16.545 13.6552L15.1139 14.1046ZM16.5169 13.8894C16.5169 14.7136 15.3592 14.8861 15.1139 14.1045L16.5451 13.6554C16.2777 12.8035 15.0169 12.9919 15.0169 13.8894H16.5169ZM16.5177 24.3856L16.5169 13.8893L15.0169 13.8895L15.0177 24.3857L16.5177 24.3856ZM15.1597 25.7446C15.9097 25.744 16.5177 25.1361 16.5177 24.3856H15.0177C15.0177 24.3077 15.081 24.2446 15.1586 24.2446L15.1597 25.7446ZM10.758 25.7446H15.1592V24.2446H10.758V25.7446ZM9.39941 24.3859C9.39941 25.1364 10.0079 25.7446 10.758 25.7446V24.2446C10.8362 24.2446 10.8994 24.3079 10.8994 24.3859H9.39941ZM1.75 24.359V1.66024H0.25V24.359H1.75ZM1.64057 24.2498C1.70108 24.2498 1.75 24.2989 1.75 24.359H0.25C0.25 25.127 0.872359 25.7498 1.64057 25.7498V24.2498ZM6.01386 24.2498H1.64057V25.7498H6.01386V24.2498ZM5.90443 24.359C5.90443 24.2989 5.95335 24.2498 6.01386 24.2498V25.7498C6.78207 25.7498 7.40443 25.127 7.40443 24.359H5.90443ZM5.90443 1.66715V24.359H7.40443V1.66715H5.90443ZM6.0138 1.77645C5.95305 1.77636 5.90443 1.72724 5.90443 1.66715H7.40443C7.40443 0.900249 6.7834 0.277566 6.01597 0.276453L6.0138 1.77645ZM1.64041 1.76953L6.0137 1.77645L6.01607 0.276453L1.64278 0.269534L1.64041 1.76953ZM1.75 1.66024C1.75 1.72069 1.70104 1.76962 1.64051 1.76953L1.64268 0.269533C0.873936 0.268421 0.25 0.891417 0.25 1.66024H1.75ZM29.2207 24.3534V1.66635H27.7207V24.3534H29.2207ZM29.1113 24.2441C29.1718 24.2441 29.2207 24.2932 29.2207 24.3534H27.7207C27.7207 25.1214 28.3431 25.7441 29.1113 25.7441V24.2441ZM33.4846 24.2441H29.1113V25.7441H33.4846V24.2441ZM33.3751 24.3534C33.3751 24.2932 33.4241 24.2441 33.4846 24.2441V25.7441C34.2528 25.7441 34.8751 25.1214 34.8751 24.3534H33.3751ZM33.3751 16.4963V24.3534H34.8751V16.4963H33.3751ZM34.7657 15.1056C33.9975 15.1056 33.3751 15.7283 33.3751 16.4963H34.8751C34.8751 16.5565 34.8262 16.6056 34.7657 16.6056V15.1056ZM36.9793 15.1056H34.7657V16.6056H36.9793V15.1056ZM36.8698 15.2149C36.8698 15.1548 36.9188 15.1056 36.9793 15.1056V16.6056C37.7475 16.6056 38.3698 15.9829 38.3698 15.2149H36.8698ZM36.8698 10.8138V15.2149H38.3698V10.8138H36.8698ZM36.9793 10.9231C36.9188 10.9231 36.8698 10.8739 36.8698 10.8138H38.3698C38.3698 10.0458 37.7475 9.42309 36.9793 9.42309V10.9231ZM34.7698 10.9231H36.9793V9.42309H34.7698V10.9231ZM33.3793 9.52317C33.3743 10.2948 33.9981 10.9231 34.7698 10.9231V9.42309C34.8308 9.42309 34.8796 9.47274 34.8792 9.53289L33.3793 9.52317ZM33.3939 7.32288L33.3793 9.52305L34.8792 9.53301L34.8938 7.33283L33.3939 7.32288ZM34.7844 5.94151C34.0202 5.94151 33.3989 6.5584 33.3939 7.32294L34.8938 7.33277C34.8934 7.39305 34.8445 7.44151 34.7844 7.44151V5.94151ZM39.1854 5.94151H34.7844V7.44151H39.1854V5.94151ZM39.076 6.05149C39.0757 5.99078 39.125 5.94151 39.1854 5.94151V7.44151C39.9556 7.44151 40.5793 6.81561 40.5759 6.045L39.076 6.05149ZM39.058 1.6666L39.076 6.05131L40.5759 6.04518L40.558 1.66046L39.058 1.6666ZM39.1674 1.77539C39.1068 1.77539 39.0583 1.72635 39.058 1.6668L40.558 1.66026C40.5547 0.894917 39.9337 0.275391 39.1674 0.275391V1.77539ZM29.111 1.77539H39.1674V0.275391H29.111V1.77539ZM29.2205 1.66609C29.2205 1.72624 29.1715 1.77539 29.111 1.77539V0.275391C28.3428 0.275391 27.7205 0.898104 27.7205 1.66609H29.2205ZM29.0017 1.1367L29.0015 1.13644L27.9394 2.19574L27.9397 2.196L29.0017 1.1367Z" fill="url(#paint0_linear_502_1128)"/>
<defs>
<linearGradient id="paint0_linear_502_1128" x1="39.826" y1="1" x2="18.3583" y2="35.7296" gradientUnits="userSpaceOnUse">
<stop stop-color="#2979FF"/>
<stop offset="1" stop-color="#F50057"/>
</linearGradient>
</defs>
</svg>
